# xmcd
# 
# Track frame offsets:
#     150
#     9451
#     26489
#     46910
#     61307
#     73029
#     87870
#     98145
#     110436
#     125275
#     135281
#     147597
# 
# Disc length: 2160
# 
# Revision: 2
# Processed by: cddbd v1.5.1PL2 Copyright (c) Steve Scherf et al.
# Submitted via: BonkEnc v1.0beta4
# 
DISCID=9b086e0c
DTITLE=Tina Turner - Ain't Nobody's Business
DYEAR=2004
DGENRE=Rock
TTITLE0=Pain
TTITLE1=Stand By Me
TTITLE2=You Paid Me Back With My Own Coins
TTITLE3=Keep You Guessing
TTITLE4=Jo Jo
TTITLE5=We Had It All
TTITLE6=Honeychild I'm Through
TTITLE7=If It's Alright With You
TTITLE8=Good Hearted Woman
TTITLE9=Ain't Nobody's Business
TTITLE10=Don't Believe Her
TTITLE11=Medley: Lay It Down - Lovin' Him Was Easier
EXTD=
EXTT0=
EXTT1=
EXTT2=
EXTT3=
EXTT4=
EXTT5=
EXTT6=
EXTT7=
EXTT8=
EXTT9=
EXTT10=
EXTT11=
PLAYORDER=
